<svg width="124" height="134" viewBox="0 0 124 134" fill="none" xmlns="http://www.w3.org/2000/svg">
<path opacity="0.5" d="M122.654 112.532L86.2484 133.23C84.6192 134.157 82.1595 134.265 80.751 133.453L0.950224 88.0976C-0.458274 87.2956 -0.279584 85.8984 1.34439 84.9929L37.7551 64.2945C39.3791 63.3683 41.8387 63.2596 43.2472 64.072L123.048 109.407C124.456 110.234 124.283 111.606 122.654 112.532Z" fill="#13247A"/>
<path d="M124 99.039L116.5 97.7509L43.2481 56.1239C41.8396 55.3272 39.38 55.4255 37.756 56.3515L3.8208 75.6416L0 74.9846V78.8074C0.0315846 79.3995 0.39669 79.9246 0.946003 80.1679L80.7466 125.519C82.1551 126.321 84.6147 126.218 86.244 125.297L122.649 104.605C123.553 104.088 124.011 103.431 123.995 102.81L124 99.039Z" fill="url(#paint0_linear_13220_141765)"/>
<path d="M122.654 100.621L86.2484 121.319C84.6192 122.246 82.1595 122.354 80.751 121.547L0.950224 76.1872C-0.458274 75.3851 -0.279584 73.988 1.34439 73.0825L37.7551 52.3844C39.3791 51.4581 41.8387 51.3495 43.2472 52.1619L123.048 97.5217C124.456 98.2979 124.283 99.695 122.654 100.621Z" fill="url(#paint1_linear_13220_141765)"/>
<path d="M122.992 97.233L80.4981 121.096L1.00781 76.4707L43.5012 52.6074L122.992 97.233Z" fill="#0067B8"/>
<path d="M25.0039 62.1346L19.2041 65.394C18.9423 65.5385 18.6247 65.5503 18.3523 65.4257L18.2926 65.394C18.0756 65.2725 18.1027 65.0559 18.3577 64.9186L24.1467 61.6539C24.4083 61.5154 24.7213 61.5037 24.9931 61.6222L25.0527 61.6539C25.286 61.7754 25.2318 61.992 25.0039 62.1346Z" fill="#0063AD"/>
<path d="M11.0905 77.1279L10.4909 77.4223L9.07422 76.7241L9.66933 76.4297L11.0905 77.1279Z" fill="white"/>
<path d="M13.1061 76.1384L12.5079 76.4301L11.0898 75.733L11.6881 75.4375L13.1061 76.1384Z" fill="white"/>
<path d="M14.1139 75.1435L13.5144 75.4379L12.0977 74.7397L12.6972 74.4453L14.1139 75.1435Z" fill="white"/>
<path d="M15.1217 75.1424L14.5235 75.4379L13.1055 74.7408L13.7037 74.4453L15.1217 75.1424Z" fill="white"/>
<path d="M39.8211 5.95508C41.213 5.95508 42.3414 7.06608 42.3414 8.43656C42.3414 9.80704 41.213 10.918 39.8211 10.918C38.4292 10.918 37.3008 9.80704 37.3008 8.43656C37.3008 7.77843 37.5663 7.14726 38.039 6.68189C38.5116 6.21652 39.1527 5.95508 39.8211 5.95508Z" fill="white"/>
<path d="M31.7513 5.95508C32.7712 5.95298 33.6918 6.55622 34.0835 7.48331C34.4753 8.41039 34.261 9.47856 33.5406 10.1893C32.8202 10.9001 31.7358 11.1134 30.7934 10.7296C29.851 10.3458 29.2363 9.44066 29.2363 8.43653C29.2363 7.0681 30.3615 5.95796 31.7513 5.95508Z" fill="#7BDAFF"/>
<path opacity="0.5" d="M23.6922 5.95508C25.0841 5.95508 26.2125 7.06608 26.2125 8.43656C26.2125 9.80704 25.0841 10.918 23.6922 10.918C22.3003 10.918 21.1719 9.80704 21.1719 8.43656C21.1719 7.06608 22.3003 5.95508 23.6922 5.95508Z" fill="#7BDAFF"/>
<path opacity="0.1" d="M15.6258 5.95508C16.6451 5.95508 17.5641 6.55966 17.9542 7.48692C18.3443 8.41417 18.1287 9.48148 17.4079 10.1912C16.6871 10.9009 15.6031 11.1132 14.6613 10.7291C13.7195 10.345 13.1055 9.44017 13.1055 8.43652C13.1055 7.06606 14.2338 5.95508 15.6258 5.95508Z" fill="#7BDAFF"/>
<path opacity="0.6" d="M53.4302 89.3327C61.2251 89.3327 67.544 85.7775 67.544 81.3919C67.544 77.0064 61.2251 73.4512 53.4302 73.4512C45.6354 73.4512 39.3164 77.0064 39.3164 81.3919C39.3164 85.7775 45.6354 89.3327 53.4302 89.3327Z" fill="#041860"/>
<path d="M53.4335 94.2972C47.7649 94.2972 42.1017 93.0976 37.7893 90.6983C33.5512 88.3552 31.252 85.2259 31.252 81.8873C31.252 78.5487 33.5724 75.4398 37.7893 73.0814C46.414 68.2828 60.4476 68.2828 69.0723 73.0814C73.3105 75.4245 75.6097 78.5538 75.6097 81.8873C75.6097 85.2208 73.2893 88.3552 69.0776 90.6983C64.76 93.0976 59.0967 94.2972 53.4335 94.2972ZM53.4335 69.8398C47.8338 69.8398 42.2394 71.0292 37.98 73.4132C33.8849 75.69 31.6228 78.7069 31.6228 81.9026C31.6228 85.0982 33.8743 88.1203 37.98 90.3971C46.4988 95.1344 60.3629 95.1344 68.8869 90.3971C72.9767 88.1203 75.2441 85.1034 75.2441 81.9026C75.2441 78.7018 72.9926 75.69 68.8869 73.4132C64.6222 71.0292 59.0278 69.8245 53.4335 69.8245V69.8398Z" fill="white"/>
<path d="M111.029 34.6827L50.5437 0.220343C50.1808 -0.0330769 49.7067 -0.0707478 49.3074 0.122116L48.3906 0.639103L48.8045 0.695972C48.6881 0.992526 48.6311 1.30857 48.6368 1.62655V42.7529C48.6368 44.1281 49.4803 45.7204 50.5227 46.3098L111.008 80.7774C111.115 80.8354 111.227 80.8839 111.343 80.9221V81.3926L112.244 80.8756C112.72 80.5261 112.97 79.9522 112.899 79.3712V38.2551C112.915 36.8696 112.071 35.2773 111.029 34.6827Z" fill="white"/>
<path d="M110.01 81.17L49.2763 46.9627C48.2244 46.3725 47.3828 44.792 47.3828 43.4321V2.61019C47.3828 1.25031 48.2296 0.624257 49.2763 1.21439L110.01 35.4217C111.062 36.0118 111.903 37.5924 111.903 38.9522V79.7742C111.903 81.1341 111.056 81.7601 110.01 81.17Z" fill="url(#paint2_linear_13220_141765)"/>
<path d="M91.7402 37.6086V31.7637L93.0409 32.4788C93.2695 32.6017 93.4854 32.7447 93.6858 32.9059C93.8711 33.0583 94.0366 33.231 94.179 33.4204C94.323 33.6143 94.4311 33.83 94.4988 34.0584C94.5749 34.3092 94.6114 34.5692 94.6071 34.8302C94.6071 35.5505 94.3416 35.8129 93.8213 35.6122C94.1221 35.8356 94.3634 36.1228 94.5259 36.4509C94.6891 36.8061 94.7704 37.1902 94.7643 37.5777C94.7643 38.1334 94.6397 38.4832 94.3849 38.6324C94.1302 38.7816 93.7563 38.7199 93.2685 38.4524L91.7402 37.6086ZM92.7103 34.681L93.0138 34.8456C93.2956 35 93.4907 35.0411 93.5991 34.9691C93.7075 34.8919 93.7617 34.6964 93.7617 34.3774C93.7627 34.2335 93.7445 34.09 93.7075 33.9504C93.6711 33.8306 93.6103 33.7187 93.5287 33.6211C93.4477 33.5252 93.3549 33.4388 93.2523 33.3638C93.1215 33.2748 92.9858 33.1923 92.8458 33.1168L92.7103 33.0448V34.681ZM92.7103 37.3873L93.068 37.5828C93.3534 37.7406 93.554 37.7766 93.6696 37.6909C93.778 37.6034 93.8322 37.3925 93.8322 37.0529C93.8452 36.7532 93.782 36.4549 93.6479 36.1833C93.5011 35.9335 93.2807 35.7296 93.0138 35.5968L92.7103 35.4322V37.3873Z" fill="white"/>
<path d="M94.7637 38.9668L95.7941 33.748L96.7576 34.3006L97.7881 40.6962L96.9276 40.1845L96.7215 38.7212L95.8457 38.2096L95.6396 39.4427L94.7637 38.9668ZM95.9539 37.6007L96.6339 37.9896L96.2939 35.4314L95.9539 37.6007Z" fill="white"/>
<path d="M98.1934 40.798V35.2871L98.9199 35.6318L100.344 39.4288V36.3068L101.218 36.7243V42.2353L100.527 41.9002L99.0676 37.943V41.2253L98.1934 40.798Z" fill="white"/>
<path d="M101.82 42.9039V36.7266L102.782 37.2708V39.954L103.824 37.8804L104.737 38.4247L103.727 40.6017L104.845 44.6673L103.883 44.123L102.975 40.6833L102.782 40.9718V43.4808L101.82 42.9039Z" fill="white"/>
<path d="M63.5113 46.6517L52.4219 40.2033V38.7109L63.5113 45.1593V46.6517Z" fill="white"/>
<path d="M77.6265 54.5931L66.5371 48.1457V46.6523L77.6265 53.0997V54.5931Z" fill="white"/>
<path d="M91.7398 62.5325L80.6504 56.0842V54.5918L91.7398 61.0401V62.5325Z" fill="white"/>
<path d="M106.863 70.4739L95.7734 64.0266V62.5332L106.863 68.9806V70.4739Z" fill="white"/>
<path opacity="0.2" d="M60.9232 16.9657L47.3828 15.8809V43.1705C47.3828 44.5329 48.2213 46.1164 49.2576 46.7077L75.2969 61.5401C82.0203 52.1317 80.5048 37.7157 80.5048 37.7157L60.9232 16.9657Z" fill="#041860"/>
<path d="M76.467 40.4113L56.4544 19.427L36.4418 17.8672C36.4418 17.8672 33.2475 44.3836 56.4544 72.4598C79.6826 70.536 76.467 40.4113 76.467 40.4113Z" fill="url(#paint3_linear_13220_141765)"/>
<path d="M36.7047 18.8594L32.2598 21.3058L52.0099 22.8297L56.4549 20.3834L36.7047 18.8594Z" fill="url(#paint4_linear_13220_141765)"/>
<path d="M71.426 43.4139L51.4134 22.4243L43.1826 21.6132L31.4008 20.8438C31.4008 20.8438 28.2065 47.3602 51.4134 75.4363C74.6416 73.5334 71.426 43.4139 71.426 43.4139Z" fill="url(#paint5_linear_13220_141765)"/>
<path d="M71.6331 43.3219L51.9464 22.6888L32.2598 21.1555L32.8149 20.8438L52.7529 22.3975L72.4396 43.0254C72.4396 43.0254 75.0582 67.778 58.0687 73.4512C74.1888 67.2669 71.6331 43.3219 71.6331 43.3219Z" fill="white"/>
<path opacity="0.2" d="M69.4243 43.9241L51.4139 25.2287L44.0126 24.5074L33.4036 23.8223C33.4036 23.8223 30.5102 47.4221 51.4139 72.4593C72.3176 70.7592 69.4243 43.9241 69.4243 43.9241Z" fill="white"/>
<path d="M38.1367 29.9747L38.8366 30.6598L38.1367 31.3449L37.4368 30.6598L38.1367 29.9747Z" fill="white"/>
<path d="M40.668 29.9649L41.3679 30.65L40.668 31.3352L39.9681 30.65L40.668 29.9649Z" fill="white"/>
<path d="M39.4062 28.7325L40.1061 29.4176L39.4062 30.1028L38.7064 29.4176L39.4062 28.7325Z" fill="white"/>
<path d="M39.4023 31.2071L40.1022 31.8922L39.4023 32.5774L38.7024 31.8922L39.4023 31.2071Z" fill="white"/>
<path d="M111.258 26.8009L109.887 25.3403L113.187 21.838L109.887 18.3356L111.258 16.875L115.935 21.838L111.258 26.8009ZM110.434 25.3403L111.258 26.2199L115.388 21.838L111.258 17.4561L110.434 18.3356L113.735 21.838L110.434 25.3403Z" fill="white"/>
<path opacity="0.5" d="M106.05 17.8672L104.846 18.9839L108.475 22.3339L104.846 25.6839L106.05 26.8005L109.685 23.4505L110.894 22.3339L106.05 17.8672Z" fill="#7BDAFF"/>
<defs>
<linearGradient id="paint0_linear_13220_141765" x1="8.41943" y1="81.564" x2="97.7689" y2="129.363" gradientUnits="userSpaceOnUse">
<stop stop-color="#3A9BD5"/>
<stop offset="0.31" stop-color="#3A9BD5"/>
<stop offset="0.36" stop-color="#3A9BD5"/>
<stop offset="0.6" stop-color="#3999D4"/>
<stop offset="0.69" stop-color="#3592CF"/>
<stop offset="0.75" stop-color="#2F86C7"/>
<stop offset="0.8" stop-color="#2676BC"/>
<stop offset="0.81" stop-color="#2573BA"/>
</linearGradient>
<linearGradient id="paint1_linear_13220_141765" x1="10.6391" y1="89.6944" x2="108.537" y2="68.1141" gradientUnits="userSpaceOnUse">
<stop stop-color="#59BDEF"/>
<stop offset="1" stop-color="#7BDAFF"/>
</linearGradient>
<linearGradient id="paint2_linear_13220_141765" x1="113.551" y1="78.0525" x2="35.2264" y2="19.4782" gradientUnits="userSpaceOnUse">
<stop stop-color="#59BDEF"/>
<stop offset="1" stop-color="#7BDAFF"/>
</linearGradient>
<linearGradient id="paint3_linear_13220_141765" x1="52.3995" y1="39.4034" x2="90.4063" y2="78.9955" gradientUnits="userSpaceOnUse">
<stop stop-color="#2573BA"/>
<stop offset="0.91" stop-color="#0364AE"/>
<stop offset="1" stop-color="#0063AD"/>
</linearGradient>
<linearGradient id="paint4_linear_13220_141765" x1="56.4549" y1="20.8446" x2="32.265" y2="20.8446" gradientUnits="userSpaceOnUse">
<stop stop-color="#0063AD"/>
<stop offset="1" stop-color="#2573BA"/>
</linearGradient>
<linearGradient id="paint5_linear_13220_141765" x1="39.711" y1="36.8859" x2="65.6203" y2="51.8866" gradientUnits="userSpaceOnUse">
<stop stop-color="#7BDAFF"/>
<stop offset="1" stop-color="#59BDEF"/>
</linearGradient>
</defs>
</svg>
