<svg width="73" height="36" viewBox="0 0 73 36" fill="none" xmlns="http://www.w3.org/2000/svg">
<path d="M14.676 0.107499C15.0218 -0.0358682 15.4106 -0.0357979 15.7565 0.107499L29.5638 5.82932C30.0897 6.04729 30.4324 6.55973 30.4324 7.12807V14.0837C30.4324 23.6613 24.6326 32.2765 15.7486 35.8957C15.4073 36.0348 15.025 36.0348 14.6838 35.8957C5.7997 32.2764 0 23.6612 0 14.0837V7.12807C0 6.55973 0.342787 6.04729 0.868662 5.82932L14.676 0.107499ZM15.2162 2.92886L2.81782 8.06688V14.0837C2.81782 22.4462 7.81141 29.8101 15.2162 33.0663C22.8243 29.7207 27.6146 22.2256 27.6146 14.0837V8.06688L15.2162 2.92886Z" fill="url(#paint0_linear_13220_141756)"/>
<path d="M13.6589 18.8233L19.7147 12.7791C20.2648 12.2299 21.1569 12.2299 21.7071 12.7791C22.2574 13.3283 22.2573 14.2186 21.7071 14.7678L14.6551 21.8064C14.1048 22.3557 13.2128 22.3555 12.6627 21.8064L8.72519 17.8764C8.17494 17.3272 8.17494 16.4368 8.72519 15.8877C9.27544 15.3385 10.1675 15.3384 10.7177 15.8877L13.6589 18.8233Z" fill="white"/>
<path d="M42.6855 18.0804V16.5569H40.7063V7.08147H37.0499V8.62165H38.9787V16.5569H37.0499V18.0804H42.6855ZM47.7676 18.2478C49.881 18.2478 51.3235 16.9085 51.3235 14.7656V10.3962C51.3235 8.25335 49.881 6.91406 47.7676 6.91406C45.5369 6.91406 44.2118 8.25335 44.2118 10.3962V14.7656C44.2118 16.9085 45.6543 18.2478 47.7676 18.2478ZM47.7676 16.6909C46.6103 16.6909 45.9562 15.904 45.9562 14.7824V10.3795C45.9562 9.25781 46.6103 8.47098 47.7676 8.47098C48.925 8.47098 49.5959 9.25781 49.5959 10.3795V14.7824C49.5959 15.904 48.925 16.6909 47.7676 16.6909ZM56.9591 18.2478C59.0724 18.2478 60.5149 16.9085 60.5149 14.7656V10.3962C60.5149 8.25335 59.0724 6.91406 56.9591 6.91406C54.7283 6.91406 53.4033 8.25335 53.4033 10.3962V14.7656C53.4033 16.9085 54.8457 18.2478 56.9591 18.2478ZM56.9591 16.6909C55.8018 16.6909 55.1476 15.904 55.1476 14.7824V10.3795C55.1476 9.25781 55.8018 8.47098 56.9591 8.47098C58.1164 8.47098 58.7873 9.25781 58.7873 10.3795V14.7824C58.7873 15.904 58.1164 16.6909 56.9591 16.6909ZM64.3223 12.5893C65.5635 12.5893 66.3183 11.7857 66.3183 10.6808V8.82255C66.3183 7.71763 65.5635 6.91406 64.3223 6.91406C63.0644 6.91406 62.3264 7.71763 62.3264 8.82255V10.6808C62.3264 11.7857 63.0644 12.5893 64.3223 12.5893ZM64.3559 18.0804L67.4924 12.5893L70.763 7.08147H69.4044L66.2679 12.5725L62.9973 18.0804H64.3559ZM64.3223 11.5513C63.8024 11.5513 63.5004 11.183 63.5004 10.6808V8.82255C63.5004 8.32031 63.8024 7.95201 64.3223 7.95201C64.8423 7.95201 65.1442 8.32031 65.1442 8.82255V10.6808C65.1442 11.183 64.8423 11.5513 64.3223 11.5513ZM69.438 18.2478C70.6792 18.2478 71.4339 17.4442 71.4339 16.3393V14.481C71.4339 13.3761 70.6792 12.5725 69.438 12.5725C68.18 12.5725 67.442 13.3761 67.442 14.481V16.3393C67.442 17.4442 68.18 18.2478 69.438 18.2478ZM69.438 17.2098C68.918 17.2098 68.6161 16.8415 68.6161 16.3393V14.481C68.6161 13.9788 68.918 13.6105 69.438 13.6105C69.9579 13.6105 70.2598 13.9788 70.2598 14.481V16.3393C70.2598 16.8415 69.9579 17.2098 69.438 17.2098ZM39.2619 30.2478C40.756 30.2478 41.7596 29.3485 41.7596 28.0165C41.7596 26.6732 40.813 26.2065 39.912 25.865L38.7828 25.4324C38.2582 25.2389 37.9958 24.8746 37.9958 24.4875C37.9958 23.9183 38.4407 23.5199 39.2162 23.5199C39.9918 23.5199 40.4594 23.998 40.4594 24.6583V24.8632H41.6228V24.7038C41.6228 23.3719 40.6419 22.5409 39.2162 22.5409C37.7791 22.5409 36.8667 23.4288 36.8667 24.5672C36.8667 25.6031 37.5282 26.1837 38.4749 26.548L39.5812 26.9806C40.1971 27.2083 40.6077 27.527 40.6077 28.1418C40.6077 28.7906 40.1173 29.2688 39.2276 29.2688C38.3722 29.2688 37.859 28.8134 37.859 28.1304V27.8685H36.707V28.0848C36.707 29.4168 37.7563 30.2478 39.2619 30.2478ZM47.6791 30.1339V29.0752H44.3259V26.844H47.2799V25.8081H44.3259V23.7134H47.5764V22.6547H43.1511V30.1339H47.6791ZM51.4201 30.2478C52.9028 30.2478 53.9179 29.3371 53.9179 27.8685V27.6522H52.7773V27.8799C52.7773 28.654 52.2755 29.1891 51.3972 29.1891C50.5532 29.1891 50.0514 28.6199 50.0514 27.8002V24.9884C50.0514 24.1688 50.5532 23.5996 51.3972 23.5996C52.2755 23.5996 52.7773 24.1346 52.7773 24.9087V25.0909H53.9179V24.9201C53.9179 23.4516 52.9028 22.5409 51.4201 22.5409C49.8233 22.5409 48.8766 23.4857 48.8766 24.9884V27.8002C48.8766 29.3029 49.9145 30.2478 51.4201 30.2478ZM57.7957 30.2478C59.2784 30.2478 60.2935 29.3029 60.2935 27.8002V22.6547H59.1187V27.8002C59.1187 28.6199 58.6283 29.1891 57.7957 29.1891C56.9517 29.1891 56.4727 28.6199 56.4727 27.8002V22.6547H55.2979V27.8002C55.2979 29.3029 56.313 30.2478 57.7957 30.2478ZM63.1905 30.1339V27.2993H64.4109C64.4793 27.2993 64.5477 27.2993 64.6048 27.288L65.7795 30.1339H67.0683L65.7567 27.0147C66.5437 26.6505 67.0455 25.9105 67.0455 24.9429C67.0455 23.554 65.9734 22.6547 64.4907 22.6547H62.0157V30.1339H63.1905ZM64.3881 26.2748H63.1905V23.6906H64.3881C65.2777 23.6906 65.848 24.1801 65.848 24.9543C65.848 25.7625 65.2777 26.2748 64.3881 26.2748ZM72.9992 30.1339V29.0752H69.646V26.844H72.6V25.8081H69.646V23.7134H72.8965V22.6547H68.4712V30.1339H72.9992Z" fill="white"/>
<defs>
<linearGradient id="paint0_linear_13220_141756" x1="33.4545" y1="34.5046" x2="-6.2392" y2="7.08358" gradientUnits="userSpaceOnUse">
<stop stop-color="#59BDEF"/>
<stop offset="1" stop-color="#7BDAFF"/>
</linearGradient>
</defs>
</svg>
