<svg width="127" height="32" viewBox="0 0 127 32" fill="none" xmlns="http://www.w3.org/2000/svg">
<path d="M16.083 0C15.7632 0 15.4772 0.18929 15.366 0.474432L6.37664 16.6818C6.22312 16.9132 6.14132 17.181 6.14062 17.4545C6.14062 18.2579 6.82545 18.9091 7.67022 18.9091H15.3182V31.2727C15.3182 31.6744 15.6606 32 16.083 32C16.37 32 16.633 31.8478 16.7642 31.6051L25.8193 15.2756L25.8163 15.2727C25.952 15.052 26.0241 14.8011 26.0254 14.5455C26.0254 13.7421 25.3406 13.0909 24.4958 13.0909H16.8478V0.727273C16.8478 0.325611 16.5054 0 16.083 0Z" fill="white"/>
<path d="M4.58112 23.2588C5.21175 23.2411 5.78911 23.5934 6.035 24.1459C6.28089 24.6984 6.14486 25.3378 5.69247 25.756L2.63327 28.6651C2.24962 29.045 1.67993 29.1981 1.14389 29.0652C0.607859 28.9323 0.189252 28.5343 0.0495121 28.0245C-0.0902278 27.5148 0.0707357 26.9731 0.470325 26.6082L3.52952 23.6991C3.80656 23.428 4.18373 23.2701 4.58112 23.2588ZM26.0104 23.2588C26.4234 23.2588 26.8189 23.4176 27.1068 23.6991L30.166 26.6082C30.5656 26.9731 30.7266 27.5148 30.5869 28.0245C30.4471 28.5343 30.0285 28.9323 29.4925 29.0652C28.9564 29.1981 28.3867 29.045 28.0031 28.6651L24.9439 25.756C24.4979 25.3431 24.3593 24.7145 24.5935 24.1661C24.8277 23.6177 25.388 23.259 26.0104 23.2588ZM1.53686 2.89517C1.94986 2.89517 2.34529 3.05401 2.63327 3.33551L5.69247 6.2446C6.09205 6.60943 6.25301 7.15117 6.11327 7.6609C5.97353 8.17062 5.55493 8.56869 5.0189 8.70157C4.48287 8.83446 3.91317 8.6814 3.52952 8.30142L0.470325 5.39233C0.0242764 4.97951 -0.114269 4.35085 0.119946 3.80247C0.354162 3.25408 0.914432 2.89532 1.53686 2.89517ZM29.0547 2.89517C29.6853 2.87748 30.2627 3.22977 30.5086 3.78227C30.7545 4.33478 30.6184 4.97416 30.166 5.39233L27.1068 8.30142C26.7232 8.6814 26.1535 8.83447 25.6175 8.70158C25.0814 8.5687 24.6628 8.17063 24.5231 7.6609C24.3833 7.15117 24.5443 6.60942 24.9439 6.2446L28.0031 3.33551C28.2801 3.06436 28.6573 2.90643 29.0547 2.89517Z" fill="url(#paint0_linear_13220_141748)"/>
<path d="M42.4356 13.9992H44.3676V4.19922H42.7716L40.3496 5.22122V6.92922L42.4356 6.15922V13.9992Z" fill="white"/>
<path d="M49.9507 4.19922V13.9992H53.9267C56.5587 13.9992 57.9447 12.3752 57.9447 10.1492V8.04922C57.9447 5.82322 56.5587 4.19922 53.9267 4.19922H49.9507ZM55.9987 10.1632C55.9987 11.5912 55.1727 12.4032 53.5907 12.4032H51.8967V5.79522H53.5907C55.1727 5.79522 55.9987 6.60722 55.9987 8.03522V10.1632Z" fill="white"/>
<path d="M64.1849 4.19922H62.1969L58.6829 13.9992H60.6289L61.2869 11.9412H65.0949L65.7529 13.9992H67.6989L64.1849 4.19922ZM63.1909 5.96322L64.5909 10.3872H61.7769L63.1909 5.96322Z" fill="white"/>
<path d="M72.1328 10.4712L75.4928 4.19922H73.3648L71.1528 8.56722L68.9408 4.19922H66.8128L70.1728 10.4712V13.9992H72.1328V10.4712Z" fill="white"/>
<path d="M44.6196 28.1952C46.7056 28.1952 48.2596 27.0892 48.2596 25.2972C48.2596 24.0372 47.4056 23.2392 46.2016 22.9172L43.3596 22.1612C42.5196 21.9372 42.1416 21.4752 42.1416 20.6632C42.1416 19.5012 43.1076 18.8712 44.4796 18.8712C45.9916 18.8712 46.8876 19.6692 46.8876 20.8312V21.0412H47.9096V20.8032C47.9096 19.1372 46.4956 18.0032 44.4796 18.0032C42.4636 18.0032 41.0916 19.0112 41.0916 20.7472C41.0916 21.8672 41.6236 22.6932 43.0376 23.0572L45.8096 23.7852C46.7196 24.0232 47.2096 24.5832 47.2096 25.3812C47.2096 26.6272 46.2296 27.3272 44.6196 27.3272C42.9956 27.3272 42.0016 26.4872 42.0016 25.2552V25.0312H40.9656V25.2832C40.9656 27.0752 42.5336 28.1952 44.6196 28.1952Z" fill="white"/>
<path d="M50.3927 27.9992H56.8748V27.0892H51.4847V23.4912H56.4548V22.5812H51.4847V19.1092H56.8608V18.1992H50.3927V27.9992Z" fill="white"/>
<path d="M61.038 27.9992H62.13V19.1092H65.126V18.1992H58.042V19.1092H61.038V27.9992Z" fill="white"/>
<path d="M68.8993 27.9992H69.9913V19.1092H72.9873V18.1992H65.9033V19.1092H68.8993V27.9992Z" fill="white"/>
<path d="M74.6467 27.9992H80.7647V27.0892H75.7387V18.1992H74.6467V27.9992Z" fill="white"/>
<path d="M82.6174 27.9992H89.0994V27.0892H83.7094V23.4912H88.6794V22.5812H83.7094V19.1092H89.0854V18.1992H82.6174V27.9992Z" fill="white"/>
<path d="M99.6606 18.1992H98.6386L95.4046 24.6672L92.1706 18.1992H91.1486V27.9992H92.1846V20.2992L94.8866 25.6332H95.9226L98.6246 20.2992V27.9992H99.6606V18.1992Z" fill="white"/>
<path d="M102.209 27.9992H108.691V27.0892H103.301V23.4912H108.271V22.5812H103.301V19.1092H108.677V18.1992H102.209V27.9992Z" fill="white"/>
<path d="M110.74 27.9992H111.804V19.9492L117.194 27.9992H118.216V18.1992H117.152V26.2492L111.762 18.1992H110.74V27.9992Z" fill="white"/>
<path d="M122.876 27.9992H123.968V19.1092H126.964V18.1992H119.88V19.1092H122.876V27.9992Z" fill="white"/>
<defs>
<linearGradient id="paint0_linear_13220_141748" x1="41.1085" y1="24.6264" x2="-6.05028" y2="1.62683" gradientUnits="userSpaceOnUse">
<stop stop-color="#59BDEF"/>
<stop offset="1" stop-color="#7BDAFF"/>
</linearGradient>
</defs>
</svg>
