<svg width="20" height="20" viewBox="0 0 20 20" fill="none" xmlns="http://www.w3.org/2000/svg">
<g opacity="0.8">
<path fill-rule="evenodd" clip-rule="evenodd" d="M0.875 15.4548C0.875 13.344 2.58615 11.6328 4.69697 11.6328H10.7576C12.8684 11.6328 14.5795 13.344 14.5795 15.4548V16.9699C14.5795 17.4072 14.2251 17.7616 13.7879 17.7616C13.3507 17.7616 12.9962 17.4072 12.9962 16.9699V15.4548C12.9962 14.2184 11.9939 13.2161 10.7576 13.2161H4.69697C3.46061 13.2161 2.45833 14.2184 2.45833 15.4548V16.9699C2.45833 17.4072 2.10389 17.7616 1.66667 17.7616C1.22944 17.7616 0.875 17.4072 0.875 16.9699V15.4548Z" fill="white"/>
<path fill-rule="evenodd" clip-rule="evenodd" d="M7.72822 4.12435C6.49185 4.12435 5.48958 5.12662 5.48958 6.36299C5.48958 7.59935 6.49185 8.60162 7.72822 8.60162C8.96458 8.60162 9.96686 7.59935 9.96686 6.36299C9.96686 5.12662 8.96458 4.12435 7.72822 4.12435ZM3.90625 6.36299C3.90625 4.25217 5.6174 2.54102 7.72822 2.54102C9.83903 2.54102 11.5502 4.25217 11.5502 6.36299C11.5502 8.4738 9.83903 10.185 7.72822 10.185C5.6174 10.185 3.90625 8.4738 3.90625 6.36299Z" fill="white"/>
<path fill-rule="evenodd" clip-rule="evenodd" d="M15.2949 12.3244C15.4042 11.9011 15.836 11.6465 16.2593 11.7558C17.9457 12.1912 19.1245 13.7118 19.1258 15.4536V16.9693C19.1258 17.4065 18.7713 17.761 18.3341 17.761C17.8969 17.761 17.5424 17.4065 17.5424 16.9693V15.4544C17.5415 14.4343 16.8512 13.5439 15.8635 13.2889C15.4401 13.1795 15.1856 12.7478 15.2949 12.3244Z" fill="white"/>
<path fill-rule="evenodd" clip-rule="evenodd" d="M12.2632 3.23416C12.3717 2.8106 12.8029 2.55515 13.2265 2.6636C14.9176 3.0966 16.1005 4.62044 16.1005 6.36614C16.1005 8.11183 14.9176 9.63567 13.2265 10.0687C12.8029 10.1771 12.3717 9.92167 12.2632 9.49811C12.1548 9.07454 12.4102 8.64326 12.8338 8.53481C13.8243 8.28119 14.5171 7.38864 14.5171 6.36614C14.5171 5.34363 13.8243 4.45108 12.8338 4.19746C12.4102 4.08901 12.1548 3.65773 12.2632 3.23416Z" fill="white"/>
</g>
</svg>
