<svg width="20" height="20" viewBox="0 0 20 20" fill="none" xmlns="http://www.w3.org/2000/svg">
<g opacity="0.8">
<path fill-rule="evenodd" clip-rule="evenodd" d="M0.912109 3.125C0.912109 2.7453 1.21991 2.4375 1.59961 2.4375H13.0548C13.4345 2.4375 13.7423 2.7453 13.7423 3.125V13.0528C13.7423 13.4325 13.4345 13.7403 13.0548 13.7403H1.59961C1.21991 13.7403 0.912109 13.4325 0.912109 13.0528V3.125ZM2.28711 3.8125V12.3653H12.3673V3.8125H2.28711Z" fill="white"/>
<path fill-rule="evenodd" clip-rule="evenodd" d="M12.3673 6.94343C12.3673 6.56373 12.6751 6.25593 13.0548 6.25593H16.1095C16.2919 6.25593 16.4667 6.32836 16.5957 6.45729L18.8867 8.74833C19.0156 8.87726 19.0881 9.05213 19.0881 9.23447V13.0529C19.0881 13.4326 18.7803 13.7404 18.4006 13.7404L13.0548 13.7403C12.6751 13.7403 12.3673 13.4326 12.3673 13.0529V6.94343ZM13.7423 7.63093V12.3654H17.7131V9.51924L15.8247 7.63093H13.7423Z" fill="white"/>
<path fill-rule="evenodd" clip-rule="evenodd" d="M5.03612 13.7403C4.3614 13.7403 3.81442 14.2873 3.81442 14.962C3.81442 15.6368 4.3614 16.1837 5.03612 16.1837C5.71085 16.1837 6.25782 15.6368 6.25782 14.962C6.25782 14.2873 5.71085 13.7403 5.03612 13.7403ZM2.43942 14.962C2.43942 13.5279 3.60201 12.3653 5.03612 12.3653C6.47024 12.3653 7.63282 13.5279 7.63282 14.962C7.63282 16.3961 6.47024 17.5587 5.03612 17.5587C3.60201 17.5587 2.43942 16.3961 2.43942 14.962Z" fill="white"/>
<path fill-rule="evenodd" clip-rule="evenodd" d="M14.964 13.7403C14.2893 13.7403 13.7423 14.2873 13.7423 14.962C13.7423 15.6368 14.2893 16.1837 14.964 16.1837C15.6387 16.1837 16.1857 15.6368 16.1857 14.962C16.1857 14.2873 15.6387 13.7403 14.964 13.7403ZM12.3673 14.962C12.3673 13.5279 13.5299 12.3653 14.964 12.3653C16.3981 12.3653 17.5607 13.5279 17.5607 14.962C17.5607 16.3961 16.3981 17.5587 14.964 17.5587C13.5299 17.5587 12.3673 16.3961 12.3673 14.962Z" fill="white"/>
</g>
</svg>
