<svg width="20" height="20" viewBox="0 0 20 20" fill="none" xmlns="http://www.w3.org/2000/svg">
<g opacity="0.8" clip-path="url(#clip0_81476_31582)">
<path fill-rule="evenodd" clip-rule="evenodd" d="M19.0875 11.7875L18.4 10.2625C18.3415 10.1417 18.3116 10.0092 18.3125 9.87499C18.3086 9.74052 18.3387 9.60725 18.4 9.4875L19.0625 7.98748C19.2028 7.69042 19.2755 7.36598 19.2755 7.03747C19.2755 6.70896 19.2028 6.38455 19.0625 6.08749C18.9364 5.79295 18.7489 5.52873 18.5125 5.3125C18.2769 5.10043 18.0003 4.93878 17.7 4.83749L16.1625 4.26247C16.0358 4.21131 15.9209 4.13474 15.825 4.03748C15.7331 3.94449 15.6608 3.83399 15.6125 3.7125L15.025 2.16248C14.9073 1.86131 14.7305 1.58675 14.5051 1.3549C14.2797 1.12306 14.0102 0.938645 13.7125 0.812492C13.4111 0.688676 13.0883 0.624989 12.7625 0.625C12.4392 0.634521 12.1208 0.706666 11.825 0.837479L10.325 1.525C10.0763 1.62511 9.79862 1.62511 9.54998 1.525L8.04996 0.837479C7.75168 0.709908 7.43066 0.64415 7.10625 0.64415C6.78183 0.64415 6.46077 0.709908 6.16249 0.837479C5.86045 0.963131 5.58795 1.15046 5.36247 1.38748C5.1259 1.61317 4.94604 1.89156 4.83749 2.19997L4.26247 3.75C4.21414 3.87149 4.1419 3.98198 4.04999 4.07497C3.95404 4.17224 3.83919 4.24885 3.7125 4.3L2.16248 4.87499C1.86002 4.98963 1.58372 5.16392 1.34998 5.3875C1.11544 5.61246 0.932122 5.8853 0.812492 6.18748C0.688676 6.4889 0.624989 6.81163 0.625 7.13749C0.6329 7.46502 0.70508 7.78782 0.837479 8.0875L1.525 9.58748C1.62511 9.83611 1.62511 10.1138 1.525 10.3625L0.837479 11.8625C0.703487 12.1567 0.635232 12.4767 0.637474 12.8C0.635011 13.1274 0.703235 13.4514 0.837479 13.75C0.963058 14.0409 1.14803 14.3023 1.3805 14.5176C1.61297 14.7328 1.88784 14.8971 2.1875 15L3.73749 15.5875C3.86446 15.6322 3.97979 15.7048 4.07497 15.8C4.17016 15.8952 4.24278 16.0105 4.28749 16.1375L4.86248 17.675C5.03568 18.1253 5.34063 18.5131 5.7375 18.7875C6.07263 19.0279 6.46538 19.1753 6.87592 19.2148C7.28645 19.2543 7.70015 19.1845 8.07499 19.0125L9.57497 18.325C9.69525 18.2651 9.82819 18.2352 9.9625 18.2375C10.0978 18.2395 10.2306 18.2738 10.35 18.3375L11.85 19C12.1471 19.1319 12.4686 19.2001 12.7937 19.2001C13.1188 19.2001 13.4404 19.1319 13.7375 19C14.0395 18.8743 14.312 18.687 14.5375 18.45C14.7636 18.2182 14.9382 17.9414 15.05 17.6375L15.6375 16.1C15.6822 15.973 15.7548 15.8577 15.85 15.7625C15.9452 15.6673 16.0605 15.5947 16.1875 15.55L17.725 14.9625C18.0244 14.8533 18.3002 14.6878 18.5375 14.475C18.7736 14.2634 18.9612 14.0033 19.0875 13.7125C19.2217 13.4139 19.29 13.0899 19.2875 12.7625C19.2971 12.4264 19.2286 12.0927 19.0875 11.7875ZM17.1 10.8625L17.7125 12.3125C17.7596 12.4282 17.7891 12.5505 17.8 12.675C17.8003 12.8037 17.7748 12.9313 17.725 13.05C17.6734 13.166 17.6014 13.2719 17.5125 13.3625C17.4168 13.4478 17.3068 13.5155 17.1875 13.5625L15.725 14.125C15.4023 14.2327 15.1106 14.4171 14.875 14.6625C14.6336 14.9014 14.4498 15.192 14.3375 15.5125L13.75 17.05C13.6572 17.293 13.4734 17.4903 13.2375 17.6C12.9952 17.6878 12.7298 17.6878 12.4875 17.6L10.9875 16.9125C10.6771 16.7724 10.3405 16.6999 10 16.6999C9.65948 16.6999 9.32285 16.7724 9.01249 16.9125L7.51247 17.6C7.38948 17.6502 7.25781 17.6756 7.12498 17.675C7.00159 17.6735 6.87922 17.6524 6.76247 17.6125C6.52716 17.5042 6.3402 17.3128 6.23749 17.075L5.6625 15.525C5.54864 15.2053 5.36503 14.9149 5.12505 14.6749C4.88506 14.4349 4.5947 14.2514 4.27498 14.1375L2.72499 13.55C2.60572 13.503 2.49568 13.4353 2.39998 13.35C2.31104 13.2594 2.23909 13.1535 2.1875 13.0375C2.13767 12.9188 2.11213 12.7912 2.11246 12.6625C2.12334 12.5379 2.15285 12.4158 2.19997 12.3L2.8875 10.8C3.02761 10.4896 3.10005 10.153 3.10005 9.81247C3.10005 9.47195 3.02761 9.13536 2.8875 8.825L2.19997 7.32498C2.11212 7.0827 2.11212 6.81726 2.19997 6.57497C2.25989 6.45009 2.34016 6.33605 2.43748 6.23749C2.54365 6.14714 2.66694 6.07912 2.79999 6.03748L4.34998 5.46249C4.67042 5.35015 4.96109 5.16635 5.19997 4.925C5.42484 4.69463 5.60313 4.42297 5.72498 4.12498L6.29997 2.575C6.39845 2.3344 6.58677 2.14158 6.82499 2.03747C6.94454 2.01253 7.06795 2.01253 7.1875 2.03747C7.32034 2.03681 7.452 2.06233 7.575 2.1125L9.07497 2.79999C9.38533 2.9401 9.72196 3.01254 10.0625 3.01254C10.403 3.01254 10.7396 2.9401 11.05 2.79999L12.55 2.1125C12.6655 2.05882 12.7914 2.03098 12.9187 2.03098C13.0461 2.03098 13.1719 2.05882 13.2875 2.1125C13.4051 2.16108 13.5115 2.2334 13.6 2.32498C13.6923 2.41528 13.761 2.5269 13.8 2.64999L14.3875 4.19998C14.5028 4.51896 14.6862 4.80899 14.925 5.04997C15.1638 5.29132 15.4545 5.47516 15.775 5.5875L17.325 6.16249C17.5656 6.26097 17.7584 6.44925 17.8625 6.68747C17.9503 6.92975 17.9503 7.1952 17.8625 7.43748L17.175 8.93749C17.0276 9.242 16.9467 9.57434 16.9375 9.91249C16.922 10.2372 16.9775 10.5614 17.1 10.8625Z" fill="white"/>
<path fill-rule="evenodd" clip-rule="evenodd" d="M12.3242 10.8379C12.1434 10.8372 11.9642 10.8721 11.7969 10.9408C11.6296 11.0094 11.4775 11.1104 11.3492 11.2379C11.1577 11.4305 11.0275 11.6755 10.9751 11.942C10.9227 12.2085 10.9503 12.4846 11.0546 12.7354C11.1589 12.9862 11.3352 13.2005 11.5611 13.3513C11.7871 13.502 12.0526 13.5825 12.3242 13.5825C12.5958 13.5825 12.8614 13.502 13.0873 13.3513C13.3133 13.2005 13.4895 12.9862 13.5938 12.7354C13.6981 12.4846 13.7258 12.2085 13.6734 11.942C13.6209 11.6755 13.4907 11.4305 13.2992 11.2379C13.171 11.1104 13.0189 11.0094 12.8516 10.9408C12.6843 10.8721 12.5051 10.8372 12.3242 10.8379Z" fill="white"/>
<path fill-rule="evenodd" clip-rule="evenodd" d="M13.0371 6.62421C13.007 6.44091 12.9088 6.27574 12.7621 6.16171C12.6418 6.0645 12.4918 6.01155 12.3371 6.01172H12.2246C12.1312 6.02388 12.0411 6.05443 11.9596 6.10163C11.878 6.14884 11.8067 6.21176 11.7496 6.28672L7.06212 12.5367C7.0082 12.6133 6.96605 12.6976 6.93711 12.7867C6.92461 12.8779 6.92461 12.9705 6.93711 13.0617C6.94966 13.1558 6.98388 13.2456 7.0371 13.3242C7.08577 13.4061 7.1494 13.4782 7.22463 13.5367C7.34904 13.6246 7.49728 13.6726 7.64962 13.6742C7.76231 13.6748 7.87357 13.6491 7.9746 13.5992C8.07386 13.5496 8.15965 13.4767 8.22461 13.3867L12.9121 7.13671C13.019 6.98872 13.0639 6.8048 13.0371 6.62421Z" fill="white"/>
<path fill-rule="evenodd" clip-rule="evenodd" d="M8.61167 8.5007C8.86816 8.24101 9.01199 7.89071 9.01199 7.5257C9.01199 7.1607 8.86816 6.8104 8.61167 6.5507C8.35198 6.29422 8.00168 6.15039 7.63667 6.15039C7.27167 6.15039 6.92137 6.29422 6.66167 6.5507C6.40309 6.80929 6.25781 7.16001 6.25781 7.5257C6.25781 7.8914 6.40309 8.24212 6.66167 8.5007C6.92026 8.75929 7.27098 8.90456 7.63667 8.90456C8.00237 8.90456 8.35309 8.75929 8.61167 8.5007Z" fill="white"/>
</g>
<defs>
<clipPath id="clip0_81476_31582">
<rect width="20" height="20" fill="white"/>
</clipPath>
</defs>
</svg>
