<svg width="24" height="20" viewBox="0 0 24 20" fill="none" xmlns="http://www.w3.org/2000/svg">
<path fill-rule="evenodd" clip-rule="evenodd" d="M2.99922 1.79727C2.42246 1.79727 1.79922 2.35527 1.79922 3.24727V16.7473C1.79922 17.6393 2.42246 18.1973 2.99922 18.1973H20.9992C21.576 18.1973 22.1992 17.6393 22.1992 16.7473V13.8473H16.9993C14.873 13.8473 13.1493 12.1236 13.1493 9.99727C13.1493 7.87097 14.873 6.14727 16.9993 6.14727H22.1992V3.24727C22.1992 2.35527 21.576 1.79727 20.9992 1.79727H2.99922ZM23.7992 6.14727V3.24727C23.7992 1.65398 22.6316 0.197266 20.9992 0.197266H2.99922C1.36684 0.197266 0.199219 1.65398 0.199219 3.24727V16.7473C0.199219 18.3405 1.36684 19.7973 2.99922 19.7973H20.9992C22.6316 19.7973 23.7992 18.3405 23.7992 16.7473V13.8473H23.8493V6.14727H23.7992ZM15.9993 9.94727C15.9993 9.47783 16.3798 9.09727 16.8493 9.09727H18.1493C18.6187 9.09727 18.9993 9.47783 18.9993 9.94727C18.9993 10.4167 18.6187 10.7973 18.1493 10.7973H16.8493C16.3798 10.7973 15.9993 10.4167 15.9993 9.94727ZM14.8493 9.99727C14.8493 8.80986 15.8119 7.84727 16.9993 7.84727H22.1493V12.1473H16.9993C15.8119 12.1473 14.8493 11.1847 14.8493 9.99727Z" fill="white"/>
</svg>
