<svg width="20" height="20" viewBox="0 0 20 20" fill="none" xmlns="http://www.w3.org/2000/svg">
<g opacity="0.8">
<path fill-rule="evenodd" clip-rule="evenodd" d="M14.2962 1.98737C14.1109 1.19626 13.4048 0.625 12.5795 0.625H7.4189L7.28798 0.629913L7.15191 0.645423L7.01808 0.671421C6.22697 0.856753 5.65572 1.56287 5.65572 2.38819V2.60323H4.19356L4.04352 2.60717C2.70217 2.67794 1.61328 3.69145 1.61328 4.96848V17.0098L1.61772 17.1505C1.69723 18.4071 2.83466 19.375 4.19356 19.375H15.8048L15.9548 19.3711C17.2962 19.3003 18.3851 18.2868 18.3851 17.0098V4.96848L18.3806 4.82771C18.3011 3.57113 17.1637 2.60323 15.8048 2.60323H14.3426V2.38819L14.3377 2.25726L14.3222 2.12119L14.2962 1.98737ZM14.3426 3.89336V4.10837C14.3426 4.93369 13.7714 5.63981 12.9803 5.82514L12.8465 5.85114L12.7104 5.86665L12.5795 5.87156H7.4189C6.59359 5.87156 5.88747 5.3003 5.70214 4.5092L5.67614 4.37537L5.66063 4.2393L5.65572 4.10837V3.89336H4.19356C3.50806 3.89336 2.97009 4.33572 2.90917 4.86776L2.90342 4.96848V17.0098C2.90342 17.5516 3.40107 18.0259 4.06684 18.0798L4.19356 18.0849H15.8048C16.4903 18.0849 17.0283 17.6425 17.0892 17.1105L17.0949 17.0098V4.96848C17.0949 4.42661 16.5973 3.95238 15.9315 3.89846L15.8048 3.89336H14.3426ZM7.67666 1.61411H12.3217C12.7687 1.61411 13.1582 1.90084 13.2995 2.31864L13.3295 2.42573L13.3477 2.53612L13.3538 2.64625L13.3533 3.86708L13.3443 3.98931L13.323 4.10085L13.286 4.21899C13.1773 4.50363 12.9474 4.72443 12.6579 4.8251L12.5467 4.85711L12.4304 4.87652L12.3217 4.88246L7.65993 4.88191L7.5377 4.87291L7.42616 4.85165L7.30802 4.81468C7.02338 4.70593 6.80258 4.47604 6.70191 4.18656L6.66989 4.07533L6.65049 3.95905L6.64455 3.85031L6.6451 2.62948L6.6541 2.50725L6.67536 2.39571L6.71232 2.27757C6.82108 1.99293 7.05096 1.77213 7.34045 1.67146L7.45168 1.63945L7.56796 1.62004L7.67666 1.61411Z" fill="white"/>
<path d="M5.46211 10.5959C5.93733 10.5959 6.32258 10.2107 6.32258 9.73547C6.32258 9.26025 5.93733 8.875 5.46211 8.875C4.98688 8.875 4.60164 9.26025 4.60164 9.73547C4.60164 10.2107 4.98688 10.5959 5.46211 10.5959Z" fill="white"/>
<path d="M8.04355 8.9485C7.61153 8.9485 7.2613 9.29872 7.2613 9.73075C7.2613 10.1628 7.61153 10.513 8.04355 10.513H14.6144C15.0464 10.513 15.3967 10.1628 15.3967 9.73075C15.3967 9.29872 15.0464 8.9485 14.6144 8.9485H8.04355Z" fill="white"/>
<path d="M7.26134 14.1522C7.26134 13.7202 7.61156 13.3699 8.04358 13.3699H14.6144C15.0465 13.3699 15.3967 13.7202 15.3967 14.1522C15.3967 14.5842 15.0465 14.9344 14.6144 14.9344H8.04358C7.61156 14.9344 7.26134 14.5842 7.26134 14.1522Z" fill="white"/>
<path d="M5.46214 15.0174C5.93737 15.0174 6.32261 14.6321 6.32261 14.1569C6.32261 13.6817 5.93737 13.2964 5.46214 13.2964C4.98692 13.2964 4.60167 13.6817 4.60167 14.1569C4.60167 14.6321 4.98692 15.0174 5.46214 15.0174Z" fill="white"/>
</g>
</svg>
