<svg width="20" height="20" viewBox="0 0 20 20" fill="none" xmlns="http://www.w3.org/2000/svg">
<g opacity="0.8">
<path fill-rule="evenodd" clip-rule="evenodd" d="M11.5735 0.504738C11.9044 0.648363 12.101 0.992918 12.0562 1.35082L11.2954 7.43755H18.25C18.5653 7.43755 18.8521 7.61992 18.9858 7.90542C19.1195 8.19092 19.076 8.528 18.8742 8.7702L10.1242 19.2702C9.89328 19.5473 9.50734 19.639 9.17648 19.4954C8.84562 19.3517 8.64905 19.0072 8.69378 18.6493L9.45462 12.5625H2.50001C2.18475 12.5625 1.89794 12.3802 1.76422 12.0947C1.6305 11.8092 1.674 11.4721 1.87583 11.2299L10.6258 0.729896C10.8567 0.452805 11.2427 0.361113 11.5735 0.504738ZM4.23473 10.9375H10.375C10.6081 10.9375 10.8299 11.0376 10.9841 11.2123C11.1384 11.387 11.2101 11.6196 11.1812 11.8508L10.65 16.1009L16.5153 9.06255H10.375C10.142 9.06255 9.92013 8.96247 9.7659 8.78776C9.61166 8.61305 9.53988 8.38052 9.56878 8.14927L10.1 3.89917L4.23473 10.9375Z" fill="white"/>
</g>
</svg>
