<svg width="20" height="20" viewBox="0 0 20 20" fill="none" xmlns="http://www.w3.org/2000/svg">
<g opacity="0.8">
<path d="M17.0802 10.8327C17.7706 10.8327 18.3302 11.3923 18.3302 12.0827V17.0827C18.3302 17.773 17.7706 18.3327 17.0802 18.3327H12.0802C11.3899 18.3327 10.8302 17.773 10.8302 17.0827V12.0827C10.8302 11.3923 11.3899 10.8327 12.0802 10.8327H17.0802ZM7.91602 10.8327C8.60637 10.8327 9.16602 11.3923 9.16602 12.0827V17.0827C9.16602 17.773 8.60637 18.3327 7.91602 18.3327H2.91602C2.22566 18.3327 1.66602 17.773 1.66602 17.0827V12.0827C1.66602 11.3923 2.22566 10.8327 2.91602 10.8327H7.91602ZM16.9135 12.2493H12.2468V16.916H16.9135V12.2493ZM7.74935 12.2493H3.08268V16.916H7.74935V12.2493ZM7.91602 1.66602C8.60637 1.66602 9.16602 2.22566 9.16602 2.91602V7.91602C9.16602 8.60637 8.60637 9.16602 7.91602 9.16602H2.91602C2.22566 9.16602 1.66602 8.60637 1.66602 7.91602V2.91602C1.66602 2.22566 2.22566 1.66602 2.91602 1.66602H7.91602ZM17.0802 1.66602C17.7706 1.66602 18.3302 2.22566 18.3302 2.91602V7.91602C18.3302 8.60637 17.7706 9.16602 17.0802 9.16602H12.0802C11.3899 9.16602 10.8302 8.60637 10.8302 7.91602V2.91602C10.8302 2.22566 11.3899 1.66602 12.0802 1.66602H17.0802ZM7.74935 3.08268H3.08268V7.74935H7.74935V3.08268ZM16.9135 3.08268H12.2468V7.74935H16.9135V3.08268Z" fill="white"/>
</g>
</svg>
