<svg width="150" height="42" viewBox="0 0 150 42" fill="none" xmlns="http://www.w3.org/2000/svg">
<path opacity="0.3" d="M21 42C32.598 42 42 32.598 42 21C42 9.40202 32.598 0 21 0C9.40202 0 0 9.40202 0 21C0 32.598 9.40202 42 21 42Z" fill="white"/>
<path d="M29.2809 9.97656H12.7203C11.1241 9.97656 9.77734 11.2735 9.77734 12.9196V29.131C9.77734 30.7272 11.0743 32.0241 12.7203 32.0241H29.2809C30.8771 32.0241 32.174 30.7272 32.174 29.131V12.8697C32.174 11.2735 30.8771 9.97656 29.2809 9.97656ZM21.0006 22.8958C16.9104 22.8958 13.5184 19.7533 13.1693 15.663C13.1194 14.7652 13.7678 14.0169 14.6158 13.9671C15.4638 13.9172 16.2619 14.5656 16.3118 15.4136C16.5113 17.9576 18.7061 19.9029 21.2999 19.7034C23.5944 19.5538 25.4401 17.7082 25.5897 15.4136C25.6396 14.5158 26.3878 13.8673 27.2857 13.9172C27.7346 13.9671 28.1336 14.1666 28.4329 14.4659C28.7322 14.7652 28.832 15.2141 28.832 15.6131C28.4828 19.7533 25.0909 22.8958 21.0006 22.8958Z" fill="white"/>
<path d="M68.1616 10.3238V29.4283C68.2136 29.7775 67.9536 30.0768 67.5897 30.1267C67.5377 30.1267 67.4857 30.1267 67.4337 30.1267H64.9381C64.5741 30.1766 64.2622 29.9271 64.2102 29.578C64.2102 29.5281 64.2102 29.4782 64.2102 29.4283V28.4307C63.1183 29.7775 61.5066 30.5756 59.2709 30.5756C55.2155 30.5756 51.8359 27.2336 51.8359 22.844C51.8359 18.4545 55.2155 15.1124 59.2709 15.1124C61.5066 15.1124 63.1183 15.9105 64.2102 17.2573V10.3238C64.1582 9.97467 64.4181 9.67538 64.7821 9.6255C64.8341 9.6255 64.8861 9.6255 64.9381 9.6255H67.4337C67.7977 9.57562 68.1096 9.82502 68.1616 10.1742C68.1616 10.2241 68.1616 10.274 68.1616 10.3238ZM64.2102 22.7941C64.3142 20.5495 62.4424 18.654 60.1028 18.6041C57.7631 18.5044 55.7874 20.3001 55.7354 22.5447C55.7354 22.6445 55.7354 22.7443 55.7354 22.844C55.6314 25.0887 57.5031 26.9842 59.8428 27.034C62.1825 27.1338 64.1582 25.3381 64.2102 23.0934C64.2102 22.9937 64.2102 22.8939 64.2102 22.7941Z" fill="white"/>
<path d="M82.459 15.4614C82.8229 15.4116 83.1349 15.661 83.1869 16.0101C83.1869 16.06 83.1869 16.1099 83.1869 16.1598V29.4282C83.2389 29.7774 82.9789 30.0766 82.615 30.1265C82.563 30.1265 82.511 30.1265 82.459 30.1265H79.9634C79.5994 30.1764 79.2874 29.927 79.2354 29.5778C79.2354 29.5279 79.2354 29.4781 79.2354 29.4282V28.6301C78.4036 29.8771 76.9478 30.5256 75.076 30.5256C72.2164 30.5256 70.0847 28.4306 70.0847 24.8391V16.1598C70.0328 15.8106 70.2927 15.5113 70.6567 15.4614C70.7087 15.4614 70.7607 15.4614 70.8126 15.4614H73.3083C73.6722 15.4116 73.9842 15.661 74.0362 16.0101C74.0362 16.06 74.0362 16.1099 74.0362 16.1598V24.5398C74.0362 26.2358 75.076 27.0339 76.4798 27.0339C78.0396 27.0339 79.2354 26.1859 79.2354 23.9412V16.1598C79.1835 15.8106 79.4434 15.5113 79.8074 15.4614C79.8594 15.4614 79.9114 15.4614 79.9634 15.4614H82.459Z" fill="white"/>
<path d="M98.2663 30.1267H95.3547C94.9908 30.1267 94.6788 29.977 94.4708 29.7276L89.4796 23.5424V29.4283C89.5315 29.7775 89.2716 30.0768 88.9076 30.1267C88.8556 30.1267 88.8036 30.1267 88.7517 30.1267H86.256C85.8921 30.1766 85.5801 29.9272 85.5281 29.578C85.5281 29.5281 85.5281 29.4782 85.5281 29.4283V10.3238C85.4761 9.97467 85.7361 9.67538 86.1 9.6255C86.152 9.6255 86.204 9.6255 86.256 9.6255H88.7517C89.1156 9.57562 89.4276 9.82502 89.4796 10.1742C89.4796 10.2241 89.4796 10.274 89.4796 10.3238V21.9462L94.2109 15.9105C94.4189 15.6112 94.7308 15.4616 95.0948 15.4616H98.0064C98.5783 15.4616 98.7862 15.8607 98.4223 16.3096L93.275 22.7443L98.6823 29.3286C99.0982 29.7775 98.8902 30.1267 98.2663 30.1267Z" fill="white"/>
<path d="M106.376 15.0625C109.755 15.0625 112.615 17.0079 112.615 20.7988V29.4283C112.667 29.7775 112.407 30.0768 112.043 30.1266C111.991 30.1266 111.939 30.1266 111.887 30.1266H109.496C109.132 30.1765 108.82 29.9271 108.768 29.5779C108.768 29.5281 108.768 29.4782 108.768 29.4283V28.8796C107.884 29.9271 106.584 30.5257 104.608 30.5257C101.905 30.5257 99.4609 28.9794 99.4609 25.9366C99.4609 22.8939 101.905 21.3475 104.608 21.3475C106.116 21.2478 107.624 21.7466 108.768 22.6445V21.0981C108.768 19.3523 107.832 18.654 106.376 18.654C105.232 18.654 104.348 19.1029 104.088 19.901C103.932 20.3 103.776 20.4996 103.36 20.4996H100.917C100.553 20.5494 100.241 20.3 100.189 19.9509C100.189 19.901 100.189 19.8511 100.189 19.7513C100.605 16.7585 103.308 15.1124 106.376 15.0625ZM108.768 25.9366C108.768 24.7893 107.676 24.091 105.96 24.091C104.244 24.091 103.412 24.8392 103.412 25.9366C103.412 27.034 104.244 27.7822 105.96 27.7822C107.676 27.7822 108.768 26.9841 108.768 25.9366Z" fill="white"/>
<path d="M121.351 15.0625C124.73 15.0625 127.59 17.0079 127.59 20.7988V29.4283C127.642 29.7775 127.382 30.0768 127.018 30.1266C126.966 30.1266 126.914 30.1266 126.862 30.1266H124.47C124.106 30.1765 123.794 29.9271 123.742 29.5779C123.742 29.5281 123.742 29.4782 123.742 29.4283V28.8796C122.858 29.9271 121.559 30.5257 119.583 30.5257C116.879 30.5257 114.436 28.9794 114.436 25.9366C114.436 22.8939 116.879 21.3475 119.583 21.3475C121.091 21.2478 122.598 21.7466 123.742 22.6445V21.0981C123.742 19.3523 122.806 18.654 121.351 18.654C120.207 18.654 119.323 19.1029 119.063 19.901C118.907 20.3 118.751 20.4996 118.335 20.4996H115.891C115.527 20.5494 115.215 20.3 115.163 19.9509C115.163 19.901 115.163 19.8511 115.163 19.7513C115.579 16.7585 118.231 15.1124 121.351 15.0625ZM123.69 25.9366C123.69 24.7893 122.598 24.091 120.883 24.091C119.167 24.091 118.335 24.8392 118.335 25.9366C118.335 27.034 119.167 27.7822 120.883 27.7822C122.598 27.7822 123.69 26.9841 123.69 25.9366Z" fill="white"/>
<path d="M137.675 15.0625C140.535 15.0625 142.615 17.1575 142.615 20.749V29.4283C142.667 29.7775 142.407 30.0767 142.043 30.1266C141.991 30.1266 141.939 30.1266 141.887 30.1266H139.391C139.027 30.1765 138.715 29.9271 138.663 29.5779C138.663 29.528 138.663 29.4782 138.663 29.4283V21.0482C138.663 19.3523 137.623 18.5542 136.22 18.5542C134.66 18.5542 133.464 19.4022 133.464 21.6468V29.4283C133.516 29.7775 133.256 30.0767 132.892 30.1266C132.84 30.1266 132.788 30.1266 132.736 30.1266H130.24C129.876 30.1765 129.564 29.9271 129.512 29.5779C129.512 29.528 129.512 29.4782 129.512 29.4283V16.1599C129.46 15.8107 129.72 15.5114 130.084 15.4615C130.136 15.4615 130.188 15.4615 130.24 15.4615H132.736C133.1 15.4117 133.412 15.6611 133.464 16.0102C133.464 16.0601 133.464 16.11 133.464 16.1599V16.958C134.348 15.7608 135.752 15.1124 137.675 15.0625Z" fill="white"/>
<path d="M146.202 8.17969C144.07 8.17969 142.406 9.82577 142.406 11.821C142.406 13.8163 144.122 15.4623 146.202 15.4623C148.281 15.4623 149.997 13.8163 149.997 11.821C150.049 9.77589 148.333 8.17969 146.202 8.17969ZM146.202 8.72838C147.969 8.72838 149.425 10.1251 149.425 11.821C149.425 13.517 147.969 14.9137 146.202 14.9137C144.434 14.9137 142.978 13.517 142.978 11.821C142.978 10.1251 144.434 8.72838 146.202 8.72838ZM145.058 10.1251V13.517H145.63V12.2699H146.41L147.242 13.517H147.813L146.982 12.2201C147.086 12.2201 147.138 12.1702 147.242 12.1702C147.398 12.1203 147.554 12.0205 147.658 11.9208C147.761 11.821 147.813 11.7213 147.865 11.5716C147.917 11.4718 147.917 11.3222 147.917 11.2224C147.917 11.1227 147.917 10.973 147.865 10.8733C147.813 10.7236 147.761 10.6239 147.658 10.5241C147.554 10.4243 147.398 10.3246 147.242 10.2747C147.034 10.1749 146.774 10.1251 146.566 10.1749L145.058 10.1251ZM145.63 10.574H146.41C146.514 10.574 146.618 10.574 146.722 10.574C146.826 10.574 146.93 10.6239 147.034 10.6737C147.138 10.7236 147.19 10.7735 147.242 10.8234C147.294 10.9232 147.346 11.0229 147.346 11.1227C147.346 11.2224 147.346 11.3222 147.242 11.422C147.19 11.5217 147.138 11.5716 147.034 11.6215L146.722 11.7213C146.618 11.7213 146.514 11.7711 146.41 11.7213H145.63V10.574Z" fill="white"/>
</svg>
